<svg width="93" height="81" viewBox="0 0 93 81" fill="none" xmlns="http://www.w3.org/2000/svg">
<path d="M58 49.3H58.6L66.8 18.4C68.5333 11.7333 71.2 7.16667 74.8 4.7C78.4 2.23333 83.8333 1 91.1 1V71H81.7V11.6C79.9667 12.3333 78.6333 13.3667 77.7 14.7C76.8333 16.0333 76 18.0333 75.2 20.7L62.7 63.6H53.9L41.3 20.7C40.5 17.9667 39.6667 15.9667 38.8 14.7C37.9333 13.3667 36.6333 12.3333 34.9 11.6V71H25.5V1C32.7667 1 38.1667 2.26666 41.7 4.8C45.3 7.26667 48 11.8 49.8 18.4L58 49.3Z" fill="#3867E2" stroke="#060F26" stroke-width="2"/>
<path d="M18.9 63V19.8H0.3V11H28.3V64.3C28.3 69.2333 26.7333 73.2 23.6 76.2C21.4667 78.2 19.0667 79.5 16.4 80.1C13.7333 80.7 10.4667 81 6.6 81H0V72.2H7.9C15.2333 72.2 18.9 69.1333 18.9 63Z" fill="#060F26"/>
</svg>
